<?xml version="1.0" encoding="UTF-8"?>
<!DOCTYPE svg PUBLIC "-//W3C//DTD SVG 1.1//EN" "http://www.w3.org/Graphics/SVG/1.1/DTD/svg11.dtd">
<!-- Creator: CorelDRAW 2019 (64-Bit) -->
<svg xmlns="http://www.w3.org/2000/svg" xml:space="preserve" width="152.4mm" height="16.9332mm" version="1.1" style="shape-rendering:geometricPrecision; text-rendering:geometricPrecision; image-rendering:optimizeQuality; fill-rule:evenodd; clip-rule:evenodd"
viewBox="0 0 15239.98 1693.32"
 xmlns:xlink="http://www.w3.org/1999/xlink"
 data-name="Layer 1">
 <defs>
  <style type="text/css">
   <![CDATA[
    .fil0 {fill:#D40B2E}
   ]]>
  </style>
 </defs>
 <g id="Layer_x0020_1">
  <metadata id="CorelCorpID_0Corel-Layer"/>
  <polygon class="fil0" points="10174.93,1521 10315.63,1603.66 10315.63,1265.64 10483.6,1178.11 10483.6,1482.06 10567.11,1482.06 10567.11,927.78 10721.48,927.78 10721.48,1180.16 10803.74,1180.16 10803.74,1323.82 10928.04,1323.82 10928.04,1105.06 11053.53,1105.06 11053.53,1482.06 11212.91,1482.06 11212.91,1399.68 11307,1399.68 11307,1213.37 11364.04,1154.74 11364.04,1012.36 11471.07,1012.36 11471.07,1482.06 11528.34,1482.06 11528.34,1355.31 11650.52,1355.3 11650.52,1651.15 11750.12,1651.15 11750.12,1556.17 11813.27,1556.17 11813.27,1418.87 11942.64,1418.87 11942.64,1105.06 12077.9,1105.06 12077.9,1434.73 12130.16,1434.73 12130.16,1289.54 12226.76,1289.54 12226.76,1429.42 12360.34,1429.42 12360.34,1693.32 12447.66,1693.32 12447.66,1593.04 12555.72,1453.77 12555.72,1588.18 12630.64,1588.18 12630.64,1247.89 12785.01,1247.89 12785.01,1490.63 12834.04,1490.63 12834.04,1588.18 12915.41,1588.18 12915.41,1342.72 13009.06,1342.72 13009.06,1639.15 13097.65,1639.15 13097.65,1503.38 13181.3,1503.38 13181.3,1586.81 13211.81,1586.81 13211.81,1541.31 13256.94,1541.31 13256.94,1586.81 13369.78,1586.81 13369.78,1383.68 13493.87,1383.68 13493.87,1251.08 13567.38,1251.08 13567.38,1302.97 13578.11,1302.97 13578.11,1321.09 13589.95,1321.09 13589.95,1341.27 13608.4,1341.28 13647.36,1377.61 13647.36,1429.27 13672.21,1429.27 13672.21,1200.86 13822.53,1200.86 13822.53,1462.11 13870.76,1432.61 13927.51,1467.27 13927.51,1366.98 13974.49,1366.98 13974.49,1349.09 13979.04,1349.09 13979.04,1279.3 14109.67,1279.3 14109.67,1276.72 14113.71,1276.72 14113.71,1218.91 14121.5,1210.12 14257.5,1210.12 14265.29,1218.91 14265.29,1420.17 14278.01,1410.83 14329.1,1374.04 14343.13,1384.37 14343.13,1376.78 14349.39,1381.7 14349.39,1388.91 14373.35,1406.81 14397.46,1389.67 14397.46,1382.09 14403.63,1377.15 14403.63,1384.74 14417.68,1374.42 14469.13,1411.22 14481.7,1420.85 14481.7,1318.06 14477.67,1318.06 14477.67,1207.01 14481.7,1207.01 14481.7,1110.82 14489.72,1102.25 14626.09,1102.25 14633.87,1110.89 14633.87,1168.62 14637.92,1168.62 14637.92,1171.2 14768.4,1171.2 14768.4,1349.09 14773.47,1349.09 14773.47,1366.98 14820.45,1366.98 14820.45,1462.95 14925.42,1462.19 14925.42,1069.71 15075.75,1069.71 15075.75,1429.27 15100.6,1429.27 15100.6,1377.68 15139.55,1341.34 15158.01,1341.34 15158.01,1321.09 15169.84,1321.09 15169.84,1302.97 15180.8,1302.97 15180.8,1145.03 15239.99,1145.03 15239.99,0 -0.02,0 -0.02,1178.11 147.31,1178.11 147.31,1482.06 230.82,1482.06 230.82,927.78 385.19,927.78 385.19,1180.16 467.45,1180.16 467.45,1323.82 591.75,1323.82 591.75,1105.06 717.24,1105.06 717.24,1482.06 876.62,1482.06 876.62,1399.68 970.71,1399.68 970.71,1213.37 1027.75,1154.74 1027.75,1012.36 1134.79,1012.36 1134.79,1482.06 1192.05,1482.06 1192.05,1355.31 1314.23,1355.3 1314.23,1651.15 1413.83,1651.15 1413.83,1556.17 1476.98,1556.17 1476.98,1418.87 1606.36,1418.87 1606.36,1105.06 1741.61,1105.06 1741.61,1434.73 1793.88,1434.73 1793.88,1289.54 1890.47,1289.54 1890.47,1429.42 2024.05,1429.42 2024.05,1693.32 2111.37,1693.32 2111.37,1593.04 2219.44,1453.77 2219.44,1588.18 2294.35,1588.18 2294.35,1247.89 2448.72,1247.89 2448.72,1490.63 2497.75,1490.63 2497.75,1588.18 2579.13,1588.18 2579.13,1342.72 2672.78,1342.72 2672.78,1639.15 2761.37,1639.15 2761.37,1503.38 2845.02,1503.38 2845.02,1586.81 2875.52,1586.81 2875.52,1541.31 2920.65,1541.31 2920.65,1586.81 3033.5,1586.81 3033.5,1383.68 3157.58,1383.68 3157.58,1251.08 3231.1,1251.08 3231.1,1302.97 3241.83,1302.97 3241.83,1321.09 3253.67,1321.09 3253.67,1341.27 3272.11,1341.28 3311.07,1377.61 3311.07,1429.27 3335.93,1429.27 3335.93,1200.86 3486.25,1200.86 3486.25,1462.11 3534.47,1432.61 3591.23,1467.27 3591.23,1366.98 3638.2,1366.98 3638.2,1349.09 3642.75,1349.09 3642.75,1279.3 3773.39,1279.3 3773.39,1276.72 3777.42,1276.72 3777.42,1218.91 3785.22,1210.12 3921.21,1210.12 3929.01,1218.91 3929.01,1420.17 3941.72,1410.83 3992.81,1374.04 4006.85,1384.37 4006.85,1376.78 4013.1,1381.7 4013.1,1388.91 4037.06,1406.81 4061.18,1389.67 4061.18,1382.09 4067.35,1377.15 4067.35,1384.74 4081.39,1374.42 4132.85,1411.22 4145.42,1420.85 4145.42,1318.06 4141.38,1318.06 4141.38,1207.01 4145.42,1207.01 4145.42,1110.82 4153.43,1102.25 4289.8,1102.25 4297.58,1110.89 4297.58,1168.62 4301.63,1168.62 4301.63,1171.2 4432.12,1171.2 4432.12,1349.09 4437.19,1349.09 4437.19,1366.98 4484.16,1366.98 4484.16,1462.95 4589.13,1462.19 4589.13,1069.71 4739.46,1069.71 4739.46,1429.27 4764.32,1429.27 4764.32,1377.68 4803.27,1341.34 4821.72,1341.34 4821.72,1321.09 4833.55,1321.09 4833.55,1302.97 4844.51,1302.97 4844.51,1145.03 5012.85,1232.56 5012.85,1590.01 5018.58,1603.66 5141.42,1603.66 5141.42,1178.11 5309.39,1178.11 5309.39,1482.06 5392.9,1482.06 5392.9,927.78 5547.27,927.78 5547.27,1180.16 5629.53,1180.16 5629.53,1323.82 5753.84,1323.82 5753.84,1105.05 5879.32,1105.05 5879.32,1482.06 6038.7,1482.06 6038.7,1399.68 6132.79,1399.68 6132.79,1213.37 6189.83,1154.74 6189.83,1012.36 6296.87,1012.36 6296.87,1482.06 6354.13,1482.06 6354.13,1355.31 6476.31,1355.3 6476.31,1651.14 6575.92,1651.14 6575.92,1556.17 6639.07,1556.17 6639.07,1418.87 6768.44,1418.87 6768.44,1105.05 6903.7,1105.05 6903.7,1434.73 6955.96,1434.73 6955.96,1289.54 7052.55,1289.54 7052.55,1429.42 7186.14,1429.42 7186.14,1693.32 7273.45,1693.32 7273.45,1593.04 7381.52,1453.77 7381.52,1588.18 7456.43,1588.18 7456.43,1247.89 7610.8,1247.89 7610.8,1490.63 7659.83,1490.63 7659.83,1588.18 7741.21,1588.18 7741.21,1342.72 7834.86,1342.72 7834.86,1639.15 7923.45,1639.15 7923.45,1503.38 8007.1,1503.38 8007.1,1586.81 8037.6,1586.81 8037.6,1541.31 8082.75,1541.31 8082.75,1586.81 8195.58,1586.81 8195.58,1383.68 8319.66,1383.68 8319.66,1251.08 8393.17,1251.08 8393.17,1302.97 8403.91,1302.97 8403.91,1321.09 8415.75,1321.09 8415.75,1341.27 8434.19,1341.28 8473.15,1377.61 8473.15,1429.27 8498.01,1429.27 8498.01,1200.86 8648.34,1200.86 8648.34,1462.11 8696.56,1432.61 8753.31,1467.27 8753.31,1366.98 8800.28,1366.98 8800.28,1349.09 8804.83,1349.09 8804.83,1279.3 8935.47,1279.3 8935.47,1276.72 8939.51,1276.72 8939.51,1218.91 8947.3,1210.12 9083.3,1210.12 9091.09,1218.91 9091.09,1420.17 9103.8,1410.83 9154.88,1374.04 9168.93,1384.37 9168.93,1376.78 9175.18,1381.71 9175.18,1388.92 9199.14,1406.81 9223.26,1389.66 9223.26,1382.09 9229.43,1377.15 9229.43,1384.74 9243.47,1374.42 9294.93,1411.21 9307.5,1420.85 9307.5,1318.05 9303.46,1318.05 9303.46,1207.01 9307.5,1207.01 9307.5,1110.82 9315.52,1102.25 9451.88,1102.25 9459.67,1110.89 9459.67,1168.62 9463.72,1168.62 9463.72,1171.2 9594.2,1171.2 9594.2,1349.09 9599.27,1349.09 9599.27,1366.98 9646.24,1366.98 9646.24,1462.95 9751.21,1462.18 9751.21,1069.71 9901.54,1069.71 9901.54,1429.27 9926.39,1429.27 9926.39,1377.68 9965.36,1341.35 9983.8,1341.35 9983.8,1321.09 9995.63,1321.09 9995.63,1302.97 10006.59,1302.97 10006.59,1145.03 10174.93,1145.03 " data-name="Shape 6 copy"/>
 </g>
</svg>
